<svg xmlns="http://www.w3.org/2000/svg" viewBox="0 0 48 48" fill="none">
  <!-- Perfect Circle Background with Primary (Black) -->
  <circle cx="24" cy="24" r="24" fill="#000000" />
  
  <!-- Centered Content -->
  <!-- Translate 12,12 to center the 24x24 icon in the 48x48 viewbox -->
  <g transform="translate(7.8, 7.8) scale(1.35)">
    <!-- White Filled Shield -->
    <path 
      d="M20 13c0 5-3.5 7.5-7.66 8.95a1 1 0 0 1-.67-.01C7.5 20.5 4 18 4 13V6a1 1 0 0 1 1-1c2 0 4.5-1.2 6.24-2.72a1.17 1.17 0 0 1 1.52 0C14.51 3.81 17 5 19 5a1 1 0 0 1 1 1z" 
      fill="#ffffff" 
    />
    
    <!-- Cutout Checkmark (Black Stroke) -->
    <path 
      d="m9 12 2 2 4-4" 
      stroke="#000000" 
      stroke-width="3" 
      stroke-linecap="round" 
      stroke-linejoin="round"
    />
  </g>
</svg>
